# Blender v2.78 (sub 0) OBJ File: ''
# www.blender.org
mtllib sphere.mtl
o Sphere_Sphere.001
v 0.000000 0.900969 -0.433884
v 0.000000 0.623490 -0.781832
v 0.000000 0.222521 -0.974928
v 0.000000 -0.222521 -0.974928
v 0.000000 -0.623490 -0.781832
v 0.000000 -0.900969 -0.433884
v 0.000000 -1.000000 -0.000000
v -0.000000 1.000000 -0.000000
v 0.339224 0.900969 -0.270522
v 0.611260 0.623490 -0.487464
v 0.762229 0.222521 -0.607858
v 0.762229 -0.222521 -0.607858
v 0.611260 -0.623490 -0.487464
v 0.339224 -0.900969 -0.270522
v 0.423005 0.900969 0.096548
v 0.762229 0.623490 0.173974
v 0.950484 0.222521 0.216942
v 0.950484 -0.222521 0.216942
v 0.762229 -0.623490 0.173974
v 0.423005 -0.900969 0.096548
v 0.188255 0.900969 0.390915
v 0.339224 0.623490 0.704406
v 0.423005 0.222521 0.878379
v 0.423005 -0.222521 0.878379
v 0.339224 -0.623490 0.704406
v 0.188255 -0.900969 0.390916
v -0.188255 0.900969 0.390915
v -0.339224 0.623490 0.704406
v -0.423005 0.222521 0.878379
v -0.423005 -0.222521 0.878379
v -0.339224 -0.623490 0.704406
v -0.188255 -0.900969 0.390915
v -0.423005 0.900969 0.096548
v -0.762229 0.623490 0.173974
v -0.950484 0.222521 0.216942
v -0.950484 -0.222521 0.216942
v -0.762229 -0.623490 0.173974
v -0.423005 -0.900969 0.096548
v -0.339224 0.900969 -0.270522
v -0.611260 0.623490 -0.487464
v -0.762229 0.222521 -0.607858
v -0.762229 -0.222521 -0.607858
v -0.611260 -0.623490 -0.487464
v -0.339224 -0.900969 -0.270522
vt 0.1513 0.5916
vt 0.2605 0.6898
vt 0.1219 0.7251
vt 0.6739 0.5441
vt 0.6995 0.6788
vt 0.6301 0.6607
vt 0.8769 0.8970
vt 0.5653 0.7622
vt 0.7443 0.8070
vt 0.3352 0.7832
vt 0.0596 0.8470
vt 0.1739 0.4559
vt 0.2132 0.5755
vt 1.0596 0.8470
vt 0.4556 0.8165
vt 0.6017 0.5525
vt 0.4575 0.5384
vt 0.3159 0.4955
vt 0.5294 0.5505
vt 0.3864 0.5188
vt 0.2453 0.4731
vt 0.2992 0.2773
vt 0.6244 0.4407
vt 0.5685 0.3436
vt 0.3951 0.2412
vt 0.2281 0.3571
vt 0.4937 0.2684
vt 0.6834 0.4024
vt 0.6962 0.2613
vt 0.0191 0.0494
vt 0.1630 0.3145
vt 0.7290 0.1227
vt 0.1424 0.1743
vt 0.7985 0.3986
vt 1.1424 0.1743
vt 0.9524 0.3227
vt 1.0191 0.0494
vt 0.1090 0.3876
vt 0.7348 0.4690
vt 0.8707 0.3452
vt 0.0350 0.3387
vt 0.1072 0.5081
vt 0.7434 0.5883
vt 0.8940 0.6196
vt 0.0400 0.5588
vt 0.8173 0.6158
vt 1.0350 0.3387
vt 0.9692 0.5989
vt 1.0400 0.5588
vt 1.3352 0.7832
vt 1.1219 0.7251
vn 0.2876 0.7488 -0.5972
vn 0.1066 -0.9694 -0.2213
vn 0.3980 -0.3980 -0.8265
vn 0.3980 0.3980 -0.8265
vn 0.1066 0.9694 -0.2213
vn 0.2876 -0.7488 -0.5972
vn 0.4339 0.0000 -0.9010
vn 0.6462 -0.7488 -0.1475
vn 0.9749 0.0000 -0.2225
vn 0.6462 0.7488 -0.1475
vn 0.2394 -0.9694 -0.0546
vn 0.8944 -0.3980 -0.2041
vn 0.8944 0.3980 -0.2041
vn 0.2394 0.9694 -0.0546
vn 0.5182 0.7488 0.4132
vn 0.1920 -0.9694 0.1531
vn 0.7172 -0.3980 0.5720
vn 0.7172 0.3980 0.5720
vn 0.1920 0.9694 0.1531
vn 0.5182 -0.7488 0.4132
vn 0.7818 0.0000 0.6235
vn -0.0000 -0.9694 0.2456
vn 0.0000 -0.3980 0.9174
vn 0.0000 0.3980 0.9174
vn -0.0000 0.9694 0.2456
vn -0.0000 -0.7488 0.6628
vn 0.0000 0.0000 1.0000
vn 0.0000 0.7488 0.6628
vn -0.7172 -0.3980 0.5720
vn -0.7172 0.3980 0.5720
vn -0.1920 0.9694 0.1531
vn -0.5182 -0.7488 0.4132
vn -0.7818 0.0000 0.6235
vn -0.5182 0.7488 0.4132
vn -0.1920 -0.9694 0.1531
vn -0.2394 0.9694 -0.0546
vn -0.6462 -0.7488 -0.1475
vn -0.9749 0.0000 -0.2225
vn -0.6462 0.7488 -0.1475
vn -0.2394 -0.9694 -0.0546
vn -0.8944 -0.3980 -0.2041
vn -0.8944 0.3980 -0.2041
vn -0.2876 -0.7488 -0.5972
vn -0.4339 0.0000 -0.9010
vn -0.2876 0.7488 -0.5972
vn -0.1066 -0.9694 -0.2213
vn -0.3980 -0.3980 -0.8265
vn -0.3980 0.3980 -0.8265
vn -0.1066 0.9694 -0.2213
usemtl None
s off
f 1/1/1 10/2/1 2/3/1
f 7/4/2 6/5/2 14/6/2
f 4/7/3 13/8/3 5/9/3
f 2/3/4 11/10/4 3/11/4
f 1/1/5 8/12/5 9/13/5
f 6/5/6 13/8/6 14/6/6
f 3/14/7 12/15/7 4/7/7
f 13/8/8 20/16/8 14/6/8
f 11/10/9 18/17/9 12/15/9
f 9/13/10 16/18/10 10/2/10
f 7/4/11 14/6/11 20/16/11
f 12/15/12 19/19/12 13/8/12
f 11/10/13 16/18/13 17/20/13
f 9/13/14 8/12/14 15/21/14
f 15/21/15 22/22/15 16/18/15
f 7/4/16 20/16/16 26/23/16
f 18/17/17 25/24/17 19/19/17
f 16/18/18 23/25/18 17/20/18
f 15/21/19 8/12/19 21/26/19
f 19/19/20 26/23/20 20/16/20
f 17/20/21 24/27/21 18/17/21
f 7/4/22 26/23/22 32/28/22
f 24/27/23 31/29/23 25/24/23
f 22/22/24 29/30/24 23/25/24
f 21/26/25 8/12/25 27/31/25
f 25/24/26 32/28/26 26/23/26
f 23/25/27 30/32/27 24/27/27
f 21/26/28 28/33/28 22/22/28
f 30/32/29 37/34/29 31/29/29
f 28/35/30 35/36/30 29/37/30
f 27/31/31 8/12/31 33/38/31
f 31/29/32 38/39/32 32/28/32
f 29/37/33 36/40/33 30/32/33
f 28/33/34 33/38/34 34/41/34
f 7/4/35 32/28/35 38/39/35
f 33/38/36 8/12/36 39/42/36
f 37/34/37 44/43/37 38/39/37
f 35/36/38 42/44/38 36/40/38
f 33/38/39 40/45/39 34/41/39
f 7/4/40 38/39/40 44/43/40
f 36/40/41 43/46/41 37/34/41
f 34/47/42 41/48/42 35/36/42
f 44/43/43 5/9/43 6/5/43
f 41/48/44 4/7/44 42/44/44
f 39/42/45 2/3/45 40/45/45
f 7/4/46 44/43/46 6/5/46
f 42/44/47 5/9/47 43/46/47
f 40/49/48 3/14/48 41/48/48
f 39/42/49 8/12/49 1/1/49
f 1/1/1 9/13/1 10/2/1
f 4/7/3 12/15/3 13/8/3
f 2/3/4 10/2/4 11/10/4
f 6/5/6 5/9/6 13/8/6
f 3/14/7 11/50/7 12/15/7
f 13/8/8 19/19/8 20/16/8
f 11/10/9 17/20/9 18/17/9
f 9/13/10 15/21/10 16/18/10
f 12/15/12 18/17/12 19/19/12
f 11/10/13 10/2/13 16/18/13
f 15/21/15 21/26/15 22/22/15
f 18/17/17 24/27/17 25/24/17
f 16/18/18 22/22/18 23/25/18
f 19/19/20 25/24/20 26/23/20
f 17/20/21 23/25/21 24/27/21
f 24/27/23 30/32/23 31/29/23
f 22/22/24 28/33/24 29/30/24
f 25/24/26 31/29/26 32/28/26
f 23/25/27 29/37/27 30/32/27
f 21/26/28 27/31/28 28/33/28
f 30/32/29 36/40/29 37/34/29
f 28/35/30 34/47/30 35/36/30
f 31/29/32 37/34/32 38/39/32
f 29/37/33 35/36/33 36/40/33
f 28/33/34 27/31/34 33/38/34
f 37/34/37 43/46/37 44/43/37
f 35/36/38 41/48/38 42/44/38
f 33/38/39 39/42/39 40/45/39
f 36/40/41 42/44/41 43/46/41
f 34/47/42 40/49/42 41/48/42
f 44/43/43 43/46/43 5/9/43
f 41/48/44 3/14/44 4/7/44
f 39/42/45 1/1/45 2/3/45
f 42/44/47 4/7/47 5/9/47
f 40/49/48 2/51/48 3/14/48
