# Blender v2.78 (sub 0) OBJ File: ''
# www.blender.org
mtllib test.mtl
o Cube.001
v 1.000000 -1.000000 1.000000
v -1.000000 -1.000000 -1.000000
v 1.000000 -1.000000 -1.000000
v -1.000000 1.000000 1.000000
v -0.260654 1.327212 -0.260653
v -1.000000 1.000000 -1.000000
v 1.339276 1.000000 1.238973
v 1.000000 -1.000000 1.620228
v 1.339276 1.000000 1.381256
v -1.000000 -1.000000 1.000000
v 1.000000 1.000000 -0.999999
v 0.260653 1.327212 0.260654
v 0.260653 1.327212 -0.260653
v -0.260654 1.327212 0.260654
v 1.880559 -1.000000 1.000000
v 2.582701 1.000000 1.000001
v 1.541281 1.000000 1.238973
v 1.880559 -1.000000 -1.000000
v 1.880559 1.000000 -0.999999
v 2.582702 1.000000 -0.999999
v 2.582702 -1.000000 1.000000
v 2.582702 -1.000000 -1.000000
v 1.880559 -1.000000 1.620228
v 1.541281 1.000000 1.381257
vn 0.0000 -1.0000 -0.0000
vn -0.4047 0.9144 0.0000
vn -0.9859 0.1672 0.0000
vn 0.0000 -0.0000 1.0000
vn -1.0000 0.0000 0.0000
vn 0.0000 0.0000 -1.0000
vn 0.0000 1.0000 0.0000
vn 0.0000 0.9144 -0.4047
vn 0.0000 0.9144 0.4047
vn 0.3314 0.9422 -0.0502
vn 0.2230 -0.0783 0.9717
vn 1.0000 0.0000 0.0000
vn -0.0000 0.1186 0.9929
vn 0.9859 0.1672 0.0000
vn -0.1011 -0.1011 0.9897
vn -0.0360 0.9351 0.3525
vn 0.4047 0.9144 0.0000
usemtl Material.001
s 1
f 1//1 2//1 3//1
f 4//2 5//2 6//2
f 7//3 8//3 9//3
f 1//4 4//4 10//4
f 10//5 6//5 2//5
f 3//6 6//6 11//6
f 5//7 12//7 13//7
f 6//8 13//8 11//8
f 4//9 12//9 14//9
f 11//10 12//10 7//10
f 15//11 16//11 17//11
f 11//6 18//6 3//6
f 1//1 18//1 15//1
f 7//7 19//7 11//7
f 20//12 21//12 22//12
f 18//1 21//1 15//1
f 19//7 16//7 20//7
f 19//6 22//6 18//6
f 9//13 23//13 24//13
f 15//1 8//1 1//1
f 15//14 24//14 23//14
f 7//7 24//7 17//7
f 1//1 10//1 2//1
f 4//2 14//2 5//2
f 7//3 1//3 8//3
f 1//15 7//15 4//15
f 10//5 4//5 6//5
f 3//6 2//6 6//6
f 5//7 14//7 12//7
f 6//8 5//8 13//8
f 4//16 7//16 12//16
f 11//17 13//17 12//17
f 15//4 21//4 16//4
f 11//6 19//6 18//6
f 1//1 3//1 18//1
f 7//7 17//7 19//7
f 20//12 16//12 21//12
f 18//1 22//1 21//1
f 19//7 17//7 16//7
f 19//6 20//6 22//6
f 9//13 8//13 23//13
f 15//1 23//1 8//1
f 15//14 17//14 24//14
f 7//7 9//7 24//7
